<svg xmlns="http://www.w3.org/2000/svg" width="16" height="16"><path d="M8.06.28c-.28.12-.56.95-.39 1.4.13.73.86 1.06 1.43 1.4.53.48 1.28.59 1.9.92a.88.88 0 00-.25-.4c-.78-.52-1.8-.74-2.43-1.5-.5-.47-.44-1.22-.26-1.82zM11 4l.05-.1.04-.08c.32-.56.91-1.02.79-1.74-.16-.59-.18-1.26-.54-1.77-.1.62-.03 1.24-.05 1.87-.1.6-.16 1.22-.29 1.82zm0 0c-1.08-.15-2.09.5-3.17.35-.94-.02-1.97.14-2.8-.41-.36-.18-.28-.64-.46-.9-.13.45-.24 1.02.12 1.4.35.34.89.19 1.32.29 1.45.2 2.93-.04 4.3-.5.2-.06.4-.15.59-.2l-.02.03c-.8.4-1.37 1.1-1.88 1.82.28-.17.54-.37.76-.61.38-.38.73-.79 1.12-1.15 0 .15.1.39.12.47a3.72 3.72 0 010-.57c-.06.39.4.52.69.63.49.26.98.55 1.55.63.78.07 1.71.1 2.31-.5.3-.12.16-.41-.1-.21-.89.07-1.78 0-2.67 0-.6-.03-1.36 0-1.76-.55 1.01.11 2.08.18 3.02-.25a2.06 2.06 0 001.23-1.33c0-.25.56-.98.02-.77-.89.61-1.68 1.4-2.69 1.81-.45.4-1.18.06-1.6.52zm0 0c-.7-.35-1.46-.29-2.21-.32.73.13 1.47.24 2.21.32zm-2.21-.32c-.45-.07-.9-.15-1.34-.25l-.37-.08.47.12c.4.16.81.2 1.24.21zM11 4.6c.05.77.28 1.53.31 2.31.14.62 1.02.45 1.26 0 .25-.64-.82-.09-.87-.67-.29-.52-.36-1.14-.7-1.64zM9 5.88c-.57.33-1.23.5-1.9.4-.32-.43-.4.33-.15.48.65.17 1.37-.1 1.83-.57L9 5.87zM5.25.8c-.16-.02-.43.5-.28.72.17.53.34 1.14.85 1.45.4.2.83.28 1.26.37-.48-.13-.96-.3-1.16-.78-.21-.5-.5-.99-.56-1.53-.01-.16-.05-.23-.1-.23zM11 4c-.62-.18-.88.56-1 1.03-.32.93-.9 1.75-1.36 2.6a4.07 4.07 0 01-2.09 1.73c-1.1.53-2.2 1.1-3.3 1.66a5.79 5.79 0 00-1.9 2.47c-.35.35-.51 1.02-.14 1.4.68.35 1.25-.53 1.77-.86A287.8 287.8 0 017 10.44c.72-.67 1.42-1.37 2.14-2.05a5.2 5.2 0 001.38-2.11c.32-.7.79-1.47.55-2.27-.02-.03-.04-.02-.07-.01z"/></svg>